<svg id="Capa_1" data-name="Capa 1" xmlns="http://www.w3.org/2000/svg" viewBox="0 0 320 170"><defs><style>.cls-1{fill:#fff;}.cls-2{fill:#c7331d;}.cls-3{fill:#153ca4;}</style></defs><rect class="cls-1" x="37.59" y="114.85" width="244.87" height="34.23"/><path class="cls-2" d="M140,127.3a2.63,2.63,0,0,0-2.1.93c-.48.63-.78,1.35-.78,5.25s.3,4.58.78,5.21a2.77,2.77,0,0,0,4.19,0c.48-.63.78-1.32.78-5.21s-.3-4.62-.78-5.25A2.62,2.62,0,0,0,140,127.3Z"/><polygon class="cls-2" points="84.79 136.59 88.51 136.59 86.71 130.9 84.79 136.59"/><path class="cls-2" d="M168.93,127.51h-3v4.32h3a2.16,2.16,0,1,0,0-4.32Z"/><path class="cls-2" d="M276.58,106.82H43.42A22.93,22.93,0,0,0,20.5,129.75V134A22.93,22.93,0,0,0,43.42,157H276.58A22.93,22.93,0,0,0,299.5,134v-4.28A22.93,22.93,0,0,0,276.58,106.82ZM65.63,144.15H60.39V133.93l-3,5.27H54l-3-5.27v10.22H45.74V122.81h5.15l4.8,9.41,4.79-9.41h5.15Zm25.25,0-1-3.18H83.33l-1,3.18H76.79l7.76-21.34h4l7.76,21.34Zm24.67-8.69v8.69H110.3v-8.69l-6.44-12.65h5.72l3.36,7.67,3.33-7.67H122ZM145.91,142A8.7,8.7,0,0,1,134,142c-2.19-2.19-2.19-4.92-2.19-8.51s0-6.33,2.19-8.51a8.7,8.7,0,0,1,11.87,0c2.19,2.18,2.19,4.91,2.19,8.51S148.1,139.8,145.91,142Zm25.6,2.16-3.78-7.94H166v7.94h-5.24V122.81h8.45c4.73,0,7.28,3.36,7.28,6.86a6.15,6.15,0,0,1-3.47,5.58l4.61,8.9Zm23,0h-5.25V122.81h5.25Zm19.39.18c-3.27,0-5.93-.6-8.09-2.82l3.36-3.36a6.93,6.93,0,0,0,4.76,1.5c2.07,0,3.06-.69,3.06-1.92a1.8,1.8,0,0,0-.42-1.26,2.52,2.52,0,0,0-1.41-.57l-2.58-.35a7.22,7.22,0,0,1-4.28-1.89,5.91,5.91,0,0,1-1.47-4.29c0-3.89,2.94-6.74,7.79-6.74,3.06,0,5.36.72,7.19,2.55l-3.29,3.29c-1.11-1.11-2.34-1.25-4-1.25s-2.58,1-2.58,2a1.41,1.41,0,0,0,.42,1,2.4,2.4,0,0,0,1.47.63l2.58.36a7.12,7.12,0,0,1,4.19,1.77,6.21,6.21,0,0,1,1.59,4.67C222.13,142,218.39,144.33,213.89,144.33Zm35.16-16.84H243.8v16.66h-5.24V127.49h-5.25v-4.68h15.74Zm21.88,16.66-1-3.18h-6.56l-1.05,3.18h-5.49l7.76-21.34h4l7.76,21.34Z"/><polygon class="cls-2" points="264.85 136.59 268.56 136.59 266.76 130.9 264.85 136.59"/><path class="cls-3" d="M37.49,77.9V65.75c0-8.74,8.4-16,16.81-18.39,6-1.72,14-.85,16.43,8.19-3.94,2-5.9,3-9.82,5-1-2.87-3.81-3.61-6.44-3-2.88.63-5.65,2.92-5.61,5.8.07,5.32.1,8,.16,13.3,0,3,2.9,4.4,5.83,4.21a7.25,7.25,0,0,0,6.61-5.15c4.1,1,6.16,1.53,10.29,2.7C68.86,87.8,61.42,90.9,55,90.9,46.34,90.9,37.49,86.64,37.49,77.9Z"/><path class="cls-3" d="M112.33,54.74,113,89.87l-11.63,0c-.29-13.67-.44-20.51-.74-34.19a5,5,0,0,0-4.53-5.15,15.92,15.92,0,0,0-2.11.08,11.17,11.17,0,0,0-1.77.44,10.08,10.08,0,0,0-3.27,1.6c.35,14.91.53,22.36.88,37.26L78.09,90,76.56,25.13c4.64-1.37,7-2,11.66-3.17.17,7.53.26,11.29.44,18.82A18.44,18.44,0,0,1,95.72,38C104.11,36.58,112.09,42.1,112.33,54.74Z"/><path class="cls-3" d="M133.92,21.49c.05,5.22-3.18,9.49-7.31,9.86s-7.37-3.24-7.45-8.35,3-9.43,7.2-9.91S133.86,16.37,133.92,21.49Zm-.44,68.35-12,0c-.35-21.62-.52-32.44-.86-54.06,4.87-.48,7.31-.68,12.21-1C133.1,56.81,133.23,67.82,133.48,89.84Z"/><path class="cls-3" d="M142,70.27c-.17-22.6-.26-33.9-.43-56.5,4.83-.3,7.25-.4,12.1-.5l.15,56.87c0,4.22,2.23,7.67,7.06,7.67,0,5.15,0,7.72,0,12.87a21,21,0,0,1-2.44.22C147.23,90.9,142.1,81.77,142,70.27Z"/><path class="cls-3" d="M164.89,71c0-7.4,0-11.1,0-18.49,0-13.52,9.29-19.67,18.26-19.14,8.71.51,17.12,6.82,16.9,19.86l-.25,15.86c-9.2-.37-13.81-.51-23-.66,0,1,0,1.48,0,2.47a6.37,6.37,0,0,0,6.56,6.64,7.37,7.37,0,0,0,6.92-4c3,2.87,4.57,4.3,7.61,7.12A16.76,16.76,0,0,1,182.46,90.9C173.7,90.9,164.86,84.31,164.89,71Zm24-18.23a5.76,5.76,0,0,0-5.76-6c-3.09-.14-6.2,1.69-6.22,5.67,0,2,0,3,0,4.94,4.79.12,7.18.21,12,.41C188.87,55.77,188.88,54.77,188.91,52.77Z"/><path class="cls-3" d="M242.3,58.88c-.29,12.44-.44,18.66-.73,31.1l-11.63,0,.75-32.1a7.15,7.15,0,0,0-6.52-7.54,8.3,8.3,0,0,0-4.86.8c-.33,15.52-.5,23.28-.83,38.8l-11.72,0c.37-19.86.55-29.79.92-49.65a27.3,27.3,0,0,1,16-2.33C233.52,39.51,242.6,46.4,242.3,58.88Z"/><path class="cls-3" d="M263.94,63.69a26.25,26.25,0,0,1,7.57,2.62c0-1.15,0-1.73,0-2.87.05-4.27-3-6.32-6.49-7.12A10.77,10.77,0,0,0,256,58.49c-2.21-2.91-3.31-4.4-5.51-7.43,4.53-4.5,9.73-5.25,15.56-3.6,8.38,2.37,16.49,9.41,16.49,18.29V88.2a60.15,60.15,0,0,1-16.43,2.7c-12.39,0-18-5.7-17.79-14.6C248.54,65.61,256.16,62.34,263.94,63.69Zm-4.58,13.12c-.06,3.1,2,5.22,6.69,5.48A19.82,19.82,0,0,0,271,82l.1-8.16a15.79,15.79,0,0,0-5.22-1.59C261.46,71.74,259.42,73.7,259.36,76.81Z"/></svg>